<svg width="14" height="14" viewBox="0 0 14 14" fill="none" xmlns="http://www.w3.org/2000/svg">
<path d="M6.33334 6.31962C6.33334 5.95143 6.63182 5.65295 7.00001 5.65295C7.3682 5.65295 7.66668 5.95143 7.66668 6.31962V10.3196C7.66668 10.6878 7.3682 10.9863 7.00001 10.9863C6.63182 10.9863 6.33334 10.6878 6.33334 10.3196V6.31962Z" fill="#9A9A9A"/>
<path d="M7.00001 3.03414C6.63182 3.03414 6.33334 3.33262 6.33334 3.70081C6.33334 4.069 6.63182 4.36747 7.00001 4.36747C7.3682 4.36747 7.66668 4.069 7.66668 3.70081C7.66668 3.33262 7.3682 3.03414 7.00001 3.03414Z" fill="#9A9A9A"/>
<path fill-rule="evenodd" clip-rule="evenodd" d="M7.00001 0.333374C3.31811 0.333374 0.333344 3.31814 0.333344 7.00004C0.333344 10.6819 3.31811 13.6667 7.00001 13.6667C10.6819 13.6667 13.6667 10.6819 13.6667 7.00004C13.6667 3.31814 10.6819 0.333374 7.00001 0.333374ZM1.66668 7.00004C1.66668 9.94556 4.05449 12.3334 7.00001 12.3334C9.94553 12.3334 12.3333 9.94556 12.3333 7.00004C12.3333 4.05452 9.94553 1.66671 7.00001 1.66671C4.05449 1.66671 1.66668 4.05452 1.66668 7.00004Z" fill="#9A9A9A"/>
</svg>
