<svg width="15" height="14" viewBox="0 0 15 14" fill="none" xmlns="http://www.w3.org/2000/svg">
<g clip-path="url(#clip0_1_3253)">
<path d="M14.4334 5.77271C14.4073 5.69188 14.359 5.61997 14.2942 5.56513C14.2293 5.51029 14.1504 5.47471 14.0663 5.46241L9.89885 4.85675L8.03536 1.08025C7.99345 1.00919 7.93373 0.950287 7.8621 0.909367C7.79046 0.868447 7.70939 0.846924 7.62689 0.846924C7.54439 0.846924 7.46332 0.868447 7.39168 0.909367C7.32005 0.950287 7.26033 1.00919 7.21842 1.08025L5.35493 4.8559L1.18746 5.46241C1.10338 5.47465 1.02439 5.51017 0.959443 5.56495C0.894491 5.61974 0.846161 5.6916 0.819918 5.77242C0.793675 5.85324 0.790565 5.93978 0.810939 6.02228C0.831314 6.10477 0.874361 6.17991 0.935212 6.23922L3.95112 9.1783L3.23961 13.33C3.22522 13.4137 3.23454 13.4997 3.26652 13.5784C3.29851 13.6571 3.35187 13.7252 3.42058 13.7752C3.48929 13.8251 3.5706 13.8548 3.65531 13.8609C3.74002 13.867 3.82474 13.8493 3.8999 13.8097L7.62689 11.8493L11.3543 13.8089C11.4294 13.8483 11.514 13.866 11.5986 13.86C11.6833 13.8539 11.7645 13.8243 11.8332 13.7745C11.9018 13.7246 11.9552 13.6566 11.9873 13.5781C12.0193 13.4995 12.0288 13.4136 12.0146 13.33L11.3031 9.17915L14.319 6.24007C14.3798 6.18065 14.4228 6.10536 14.443 6.02275C14.4632 5.94014 14.4599 5.85351 14.4334 5.77271V5.77271Z" fill="#D2D2D2"/>
<path d="M7.39165 0.909367C7.46329 0.868447 7.54436 0.846924 7.62686 0.846924V11.8493L3.89987 13.8097C3.82471 13.8493 3.73998 13.867 3.65528 13.8609C3.57057 13.8548 3.48926 13.8251 3.42055 13.7752C3.35184 13.7252 3.29848 13.6571 3.26649 13.5784C3.23451 13.4997 3.22519 13.4137 3.23958 13.33L3.95109 9.1783L0.935182 6.23922C0.87433 6.17991 0.831283 6.10477 0.810909 6.02227C0.790534 5.93978 0.793644 5.85324 0.819888 5.77242C0.846131 5.6916 0.894461 5.61974 0.959412 5.56495C1.02436 5.51017 1.10335 5.47465 1.18743 5.46241L5.3549 4.8559L7.21839 1.08025C7.2603 1.00919 7.32002 0.950287 7.39165 0.909367Z" fill="#FFEB3B"/>
</g>
<defs>
<clipPath id="clip0_1_3253">
<rect width="15" height="14" fill="white" transform="translate(0.272736)"/>
</clipPath>
</defs>
</svg>
