<svg width="15" height="14" viewBox="0 0 15 14" fill="none" xmlns="http://www.w3.org/2000/svg">
<path d="M14.1606 5.77271C14.1345 5.69188 14.0863 5.61997 14.0214 5.56513C13.9566 5.51029 13.8776 5.47471 13.7936 5.46241L9.62611 4.85675L7.76262 1.08025C7.72072 1.00919 7.66099 0.950287 7.58936 0.909367C7.51772 0.868447 7.43665 0.846924 7.35415 0.846924C7.27166 0.846924 7.19058 0.868447 7.11895 0.909367C7.04731 0.950287 6.98759 1.00919 6.94569 1.08025L5.08219 4.8559L0.914727 5.46241C0.830642 5.47465 0.751659 5.51017 0.686707 5.56495C0.621756 5.61974 0.573426 5.6916 0.547183 5.77242C0.520939 5.85324 0.517829 5.93978 0.538204 6.02228C0.558578 6.10477 0.601625 6.17991 0.662477 6.23922L3.67838 9.1783L2.96688 13.33C2.95248 13.4137 2.96181 13.4997 2.99379 13.5784C3.02577 13.6571 3.07913 13.7252 3.14784 13.7752C3.21655 13.8251 3.29786 13.8548 3.38257 13.8609C3.46728 13.867 3.55201 13.8493 3.62717 13.8097L7.35415 11.8493L11.0816 13.8089C11.1567 13.8483 11.2413 13.866 11.3259 13.86C11.4105 13.8539 11.4917 13.8243 11.5604 13.7745C11.6291 13.7246 11.6825 13.6566 11.7145 13.5781C11.7466 13.4995 11.7561 13.4136 11.7419 13.33L11.0304 9.17915L14.0463 6.24007C14.1071 6.18065 14.1501 6.10536 14.1703 6.02275C14.1905 5.94014 14.1872 5.85351 14.1606 5.77271V5.77271Z" fill="#FFEB3B"/>
</svg>
