<svg width="16" height="16" viewBox="0 0 16 16" fill="none" xmlns="http://www.w3.org/2000/svg">
<path fill-rule="evenodd" clip-rule="evenodd" d="M8 16C12.4183 16 16 12.4183 16 8C16 3.58172 12.4183 0 8 0C3.58172 0 0 3.58172 0 8C0 12.4183 3.58172 16 8 16ZM4.23418 9.5166C3.55941 8.32172 2.80572 5.46658 5.1888 3.60467C7.92906 1.4637 10.8069 3.50667 11.1205 3.8374C11.9032 4.51957 13.1526 6.61046 11.8887 9.5166C10.9163 9.45533 8.88403 9.81983 8.53412 11.768C8.44128 12.3438 8.35856 13.0791 8.32881 13.3748H7.72181C7.69205 13.001 7.60576 12.1563 7.49864 11.768C7.49475 11.7539 7.49064 11.7387 7.48626 11.7226C7.33973 11.1815 6.88885 9.5166 4.23418 9.5166Z" fill="#29B24A"/>
</svg>
