<svg width="16" height="16" viewBox="0 0 16 16" fill="none" xmlns="http://www.w3.org/2000/svg">
<path d="M5.5321 11.8559C6.01919 12.4738 6.5144 13.2483 6.77417 13.7179C7.09078 14.3276 7.22067 14.7395 7.45609 15.4728C7.5941 15.8765 7.72399 16.0001 8 16.0001C8.30037 16.0001 8.43838 15.7941 8.54392 15.4728C8.7631 14.7807 8.93358 14.2534 9.20148 13.7508C9.72915 12.7869 10.3948 11.93 11.0443 11.1061C11.2229 10.8754 12.3594 9.51602 12.8709 8.43672C12.8709 8.43672 13.4959 7.25855 13.4959 5.61076C13.4959 4.07008 12.879 2.99902 12.879 2.99902L11.093 3.48512L10.0052 6.38522L9.73727 6.78069L9.68045 6.85484L9.60738 6.94547L9.48561 7.09377L9.30701 7.27503L8.34096 8.0742L5.92989 9.4913L5.5321 11.8559Z" fill="#34A853"/>
<path d="M3.03986 8.23892C3.63248 9.60658 4.76089 10.8012 5.5321 11.8558L9.6155 6.94541C9.6155 6.94541 9.03912 7.71163 8 7.71163C6.83912 7.71163 5.89742 6.77239 5.89742 5.58598C5.89742 4.77033 6.37639 4.21008 6.37639 4.21008L3.60812 4.95983L3.03986 8.23892Z" fill="#FBBC04"/>
<path d="M9.6642 0.255371C11.0199 0.700273 12.1808 1.63127 12.879 3.00717L9.61549 6.95362C9.61549 6.95362 10.0945 6.38513 10.0945 5.57772C10.0945 4.3666 9.08781 3.45208 7.99999 3.45208C6.96899 3.45208 6.37637 4.21006 6.37637 4.21006V1.7219L9.6642 0.255371Z" fill="#4285F4"/>
<path d="M3.78671 1.99382C4.59852 1.01339 6.01919 0 7.98376 0C8.93358 0 9.65609 0.255407 9.65609 0.255407L6.37638 4.21009H4.05461L3.78671 1.99382Z" fill="#1A73E8"/>
<path d="M3.03986 8.23895C3.03986 8.23895 2.50406 7.15965 2.50406 5.60249C2.50406 4.12772 3.07233 2.84245 3.79484 2.00208L6.3845 4.21835L3.03986 8.23895Z" fill="#EA4335"/>
</svg>
