<svg width="16" height="16" viewBox="0 0 16 16" fill="none" xmlns="http://www.w3.org/2000/svg">
<g clip-path="url(#clip0_49_119)">
<path fill-rule="evenodd" clip-rule="evenodd" d="M13.8369 6.80534L13.8369 5.2697C13.8369 4.85089 14.0071 4.32155 14.8231 4.32155C15.6392 4.32155 15.7661 5.10256 15.7661 5.2697L15.7661 12.9856C15.7661 12.998 15.7662 13.0125 15.7664 13.0287C15.7709 13.5362 15.7911 15.8279 12.4382 15.8279L9.29469 15.8279C8.62273 15.8279 6.33654 15.4803 6.33654 12.7539L6.33654 9.40183C6.33654 8.79166 6.75362 6.80534 9.44144 6.80534L13.8369 6.80534ZM13.8369 8.82754L13.8369 12.5178C13.8369 12.5592 13.8373 12.6008 13.8378 12.6424C13.8442 13.2345 13.8504 13.8139 12.5491 13.8139L9.29468 13.8139C8.77925 13.8139 8.251 13.4428 8.251 12.5178L8.251 9.74392C8.251 9.27569 8.41908 8.82753 9.76372 8.82754L13.8369 8.82754Z" fill="#0091FF"/>
<ellipse cx="11.0285" cy="11.4552" rx="1.48945" ry="1.29433" transform="rotate(-180 11.0285 11.4552)" fill="#0091FF"/>
<path fill-rule="evenodd" clip-rule="evenodd" d="M2.11208 9.22151V10.7572C2.11208 11.176 1.94189 11.7053 1.12583 11.7053C0.30976 11.7053 0.182827 10.9243 0.182827 10.7572V3.04126C0.182827 3.02881 0.182699 3.01439 0.182556 2.99815C0.178078 2.49061 0.157857 0.198975 3.51074 0.198975H6.65426C7.32621 0.198975 9.61241 0.546533 9.61241 3.27297V6.62502C9.61241 7.23519 9.19533 9.22151 6.50751 9.22151H2.11208ZM2.11209 7.19932V3.50908C2.11209 3.46761 2.11164 3.42601 2.11119 3.38448C2.10477 2.79234 2.0985 2.21298 3.39988 2.21298H6.65426C7.16969 2.21298 7.69795 2.5841 7.69795 3.50908V6.28294C7.69795 6.75116 7.52987 7.19932 6.18522 7.19932H2.11209Z" fill="#FF0000"/>
<ellipse cx="4.92045" cy="4.57167" rx="1.48945" ry="1.29433" fill="#FF0000"/>
</g>
<defs>
<clipPath id="clip0_49_119">
<rect width="16" height="16" fill="white"/>
</clipPath>
</defs>
</svg>
