<svg width="16" height="16" viewBox="0 0 16 16" fill="none" xmlns="http://www.w3.org/2000/svg">
<path d="M8 0C4.41005 0 1.5 2.86528 1.5 6.4C1.5 8.16672 2.22703 9.7664 3.40288 10.9245C4.57905 12.0832 7.35 13.76 7.5125 15.52C7.53686 15.7839 7.7309 16 8 16C8.2691 16 8.46314 15.7839 8.4875 15.52C8.65 13.76 11.4209 12.0832 12.5971 10.9245C13.773 9.7664 14.5 8.16672 14.5 6.4C14.5 2.86528 11.59 0 8 0Z" fill="#FF4433"/>
<path d="M8.00004 8.64016C9.25649 8.64016 10.275 7.63727 10.275 6.40016C10.275 5.16304 9.25649 4.16016 8.00004 4.16016C6.7436 4.16016 5.72504 5.16304 5.72504 6.40016C5.72504 7.63727 6.7436 8.64016 8.00004 8.64016Z" fill="white"/>
</svg>
