<svg width="16" height="16" viewBox="0 0 16 16" fill="none" xmlns="http://www.w3.org/2000/svg">
<g clip-path="url(#clip0_49_82)">
<path d="M6.37088 14.2526C7.36521 14.1644 10.9338 13.4016 12.5937 13.0313C12.9012 12.963 13.6989 14.0385 15.1309 14.8748C16.2765 15.5438 15.6082 13.2745 15.1309 12.0563C15.3594 11.5274 15.975 8.24096 16.0088 5.47233C16.0425 2.7037 15.467 2.40497 14.0236 2.01573C12.5801 1.62649 3.78336 0.616372 1.82018 1.05998C-0.143009 1.50358 -0.180945 2.97382 0.257984 4.88147C0.696912 6.78912 2.19106 10.9849 3.06311 12.6388C3.93516 14.2927 5.12796 14.3629 6.37088 14.2526Z" fill="#FF4749"/>
<path d="M9.94326 3.68015L8.32495 6.94801L6.66553 3.67971C6.65701 3.66292 6.63977 3.65234 6.62095 3.65234H4.21096C4.17268 3.65234 4.1486 3.69361 4.16743 3.72694L6.7437 8.2857C6.82853 8.4358 6.87311 8.60529 6.87311 8.7777V11.3355C6.87311 11.3632 6.89549 11.3855 6.92311 11.3855H9.68576C9.71338 11.3855 9.73576 11.3632 9.73576 11.3355V8.77614C9.73576 8.60472 9.77983 8.43617 9.86373 8.28669L12.423 3.72682C12.4418 3.69349 12.4177 3.65234 12.3794 3.65234H9.98807C9.96906 3.65234 9.9517 3.66312 9.94326 3.68015Z" fill="white"/>
</g>
<defs>
<clipPath id="clip0_49_82">
<rect width="16" height="16" fill="white"/>
</clipPath>
</defs>
</svg>
